<svg xmlns="http://www.w3.org/2000/svg" width="16" height="16" viewBox="0 0 24 24" fill="none"
     stroke="url(#blueGradient)"  stroke-width="2" stroke-linecap="round" stroke-linejoin="round">
    <defs>
        <linearGradient id="blueGradient" x1="0" y1="0" x2="24" y2="24" gradientUnits="userSpaceOnUse">
            <stop offset="40%" stop-color="#51a2ff"/>
            <stop offset="100%" stop-color="#FFFFFF"/>
        </linearGradient>
    </defs>

    <path d="M11.017 2.814a1 1 0 0 1 1.966 0l1.051 5.558a2 2 0 0 0 1.594 1.594l5.558 1.051a1 1 0 0 1 0 1.966l-5.558 1.051a2 2 0 0 0-1.594 1.594l-1.051 5.558a1 1 0 0 1-1.966 0l-1.051-5.558a2 2 0 0 0-1.594-1.594l-5.558-1.051a1 1 0 0 1 0-1.966l5.558-1.051a2 2 0 0 0 1.594-1.594z"/>
    <path d="M20 2v4"/>
    <path d="M22 4h-4"/>
    <circle cx="4" cy="20" r="2"/>
</svg>
